<svg xmlns="http://www.w3.org/2000/svg" width="71.298" height="88" viewBox="0 0 71.298 88">
  <g id="Groupe_78" data-name="Groupe 78" transform="translate(-2314.702 -945)">
    <g id="Groupe_77" data-name="Groupe 77" transform="translate(2333.704 944.502)">
      <circle id="Ellipse_11" data-name="Ellipse 11" cx="14" cy="14" r="14" transform="translate(12.296 27.498)" fill="#00540b"/>
      <path id="Soustraction_3" data-name="Soustraction 3" d="M52,31H0c0-.14,0-.278,0-.419a35.069,35.069,0,0,1,2.043-11.9A31.248,31.248,0,0,1,7.615,8.957,26.125,26.125,0,0,1,15.879,2.4a22.511,22.511,0,0,1,20.241,0,26.128,26.128,0,0,1,8.264,6.554,31.253,31.253,0,0,1,5.572,9.721A35.069,35.069,0,0,1,52,30.581c0,.14,0,.278,0,.418Z" transform="translate(0.296 57.498)" fill="#00540b"/>
      <path id="Union_3" data-name="Union 3" d="M8.58,32V21.7a7.418,7.418,0,0,1-.919.057A7.836,7.836,0,0,1,0,13.76a7.836,7.836,0,0,1,7.661-8,7.359,7.359,0,0,1,3.112.688,8.869,8.869,0,0,1,17-.227,7.359,7.359,0,0,1,2.568-.461,7.836,7.836,0,0,1,7.661,8,7.836,7.836,0,0,1-7.661,8,7.414,7.414,0,0,1-.92-.057V32Z" transform="translate(7.296 0.498)" fill="#00540b"/>
    </g>
    <path id="Tracé_18" data-name="Tracé 18" d="M2318.956,966.513c0,7.553,1.125,12.856,6.428,20.248s6.764,6.788,12.549,8.154,10.591-2.69,10.591-2.69l-5.785-10.927-4.918,2.815s-5.88.141-8.327-2.926-1.463-9.34-1.463-9.34l3.713-4.163-6.36-11.133A10.637,10.637,0,0,0,2318.956,966.513Z" transform="matrix(1, 0.017, -0.017, 1, 13.468, -31.453)" fill="#00540b"/>
  </g>
</svg>
