<svg xmlns="http://www.w3.org/2000/svg" width="40.105" height="36.372" viewBox="0 0 40.105 36.372">
  <g id="Groupe_79" data-name="Groupe 79" transform="translate(-64.871 8)">
    <g id="Groupe_12" data-name="Groupe 12" transform="translate(64.871)">
      <path id="Soustraction_2" data-name="Soustraction 2" d="M13,26A13,13,0,1,1,26,13,13.015,13.015,0,0,1,13,26ZM13,2.737A10.263,10.263,0,1,0,23.263,13,10.274,10.274,0,0,0,13,2.737ZM13,21.9A8.9,8.9,0,1,1,21.9,13,8.905,8.905,0,0,1,13,21.9Z" transform="translate(5.105 1)"/>
      <path id="Tracé_3" data-name="Tracé 3" d="M371.571,92v9.935l1.97,1.082-.3,16.735h2.49l-.855-16.735,1.858-1.082V92h-.818l-.186,5.9h-.557l-.3-5.9h-.855l-.223,5.9h-.78l-.632-5.9Z" transform="translate(-371.571 -92)"/>
      <path id="Tracé_4" data-name="Tracé 4" d="M371.678,92.073c-.1-.193.768,28.372.768,28.372h2.177l-.737-12.263,1.536-.5S376.671,95.271,371.678,92.073Z" transform="translate(-339.639 -92.072)"/>
    </g>
    <g id="Union_2" data-name="Union 2" transform="translate(869 75)">
      <path d="M -772.6295776367188 -61.49989700317383 L -778.5773315429688 -61.49989700317383 L -778.5773315429688 -67.94761657714844 L -778.5773315429688 -68.44761657714844 L -779.0773315429688 -68.44761657714844 L -785.5240478515625 -68.44761657714844 L -785.5240478515625 -74.39429473876953 L -779.0773315429688 -74.39429473876953 L -778.5773315429688 -74.39429473876953 L -778.5773315429688 -74.89429473876953 L -778.5773315429688 -82.49979400634766 L -772.6295776367188 -82.49979400634766 L -772.6295776367188 -74.89429473876953 L -772.6295776367188 -74.39429473876953 L -772.1295776367188 -74.39429473876953 L -764.5241088867188 -74.39429473876953 L -764.5241088867188 -68.44761657714844 L -772.1295776367188 -68.44761657714844 L -772.6295776367188 -68.44761657714844 L -772.6295776367188 -67.94761657714844 L -772.6295776367188 -61.49989700317383 Z" stroke="none"/>
      <path d="M -773.1295776367188 -61.99989700317383 L -773.1295776367188 -68.94761657714844 L -765.0241088867188 -68.94761657714844 L -765.0241088867188 -73.89429473876953 L -773.1295776367188 -73.89429473876953 L -773.1295776367188 -81.99979400634766 L -778.0773315429688 -81.99979400634766 L -778.0773315429688 -73.89429473876953 L -785.0240478515625 -73.89429473876953 L -785.0240478515625 -68.94761657714844 L -778.0773315429688 -68.94761657714844 L -778.0773315429688 -61.99989700317383 L -773.1295776367188 -61.99989700317383 M -772.1295776367188 -60.99989700317383 L -779.0773315429688 -60.99989700317383 L -779.0773315429688 -67.94761657714844 L -786.0240478515625 -67.94761657714844 L -786.0240478515625 -74.89429473876953 L -779.0773315429688 -74.89429473876953 L -779.0773315429688 -82.99979400634766 L -772.1295776367188 -82.99979400634766 L -772.1295776367188 -74.89429473876953 L -764.0241088867188 -74.89429473876953 L -764.0241088867188 -67.94761657714844 L -772.1295776367188 -67.94761657714844 L -772.1295776367188 -60.99989700317383 Z" stroke="none" fill="#f6cd00"/>
    </g>
  </g>
</svg>
