<svg xmlns="http://www.w3.org/2000/svg" width="100.129" height="64" viewBox="0 0 100.129 64">
  <g id="Groupe_83" data-name="Groupe 83" transform="translate(-607 459)" opacity="0.57">
    <path id="Union_7" data-name="Union 7" d="M0,64V25a6,6,0,0,1,6-6H7V0h8V19a6,6,0,0,1,6,6V64Z" transform="translate(654 -459)" fill="#f6cd00"/>
    <path id="Union_8" data-name="Union 8" d="M0,53V21.734a6,6,0,0,1,6-6h.333V0h7.238V15.762A6,6,0,0,1,19,21.734V53Z" transform="translate(670 -448)" fill="#f6cd00"/>
    <rect id="Rectangle_32" data-name="Rectangle 32" width="14" height="28" transform="translate(638 -433)" fill="#f6cd00"/>
    <path id="Tracé_20" data-name="Tracé 20" d="M609.326-436.982l-1.648,3.061,27.076,22.838,1.884-1.177Z" fill="#f6cd00"/>
    <path id="Union_6" data-name="Union 6" d="M80.5,20.659a3,3,0,0,1-5,0,3,3,0,0,1-5,0,3,3,0,0,1-5,0,3,3,0,0,1-5,0,3,3,0,0,1-5,0,3,3,0,0,1-5,0,3,3,0,0,1-5,0,3,3,0,0,1-5,0,3,3,0,0,1-5,0,3,3,0,0,1-5,0,3,3,0,0,1-5,0,3,3,0,0,1-5,0,3,3,0,0,1-5,0,3,3,0,0,1-5,0,3,3,0,0,1-5,0,3,3,0,1,1,0-3.317,3.01,3.01,0,0,1,1.4-1.135,4.5,4.5,0,1,1,7.6-4.769A4.517,4.517,0,0,1,16.456,9.49,7,7,0,0,1,29.5,4.4a7,7,0,0,1,13,0,7,7,0,0,1,13,0A7,7,0,0,1,68.544,9.49,4.518,4.518,0,0,1,70.5,11.437a4.5,4.5,0,1,1,7.736,4.572A3,3,0,0,1,80.5,17.341a3,3,0,1,1,0,3.317Z" transform="translate(615 -423)" fill="#f6cd00" stroke="#ffdc30" stroke-width="1"/>
    <path id="Union_5" data-name="Union 5" d="M27,8a3,3,0,0,1-3-3V3c0-.023,0-.046,0-.068l-7.687-.939A1,1,0,0,1,16.436,0h98.128a1,1,0,0,1,.121,1.993l-6.691.817Q108,2.9,108,3V5a3,3,0,0,1-3,3Z" transform="translate(591.564 -403)" fill="#f6cd00"/>
  </g>
</svg>
