<svg xmlns="http://www.w3.org/2000/svg" width="57.749" height="50.855" viewBox="0 0 57.749 50.855"><g transform="translate(0 0.04)"><path d="M53.8,49.462l9.971,29.846H43.826Zm8.583,28.846L53.8,52.618l-8.582,25.69Z" transform="translate(-42.093 -47.295)" fill="#d8e1a9"/><path d="M.5,28.871h-1V0h1Z" transform="translate(11.704 2.745)" fill="#d8e1a9"/><path d="M673.287,49.462l9.971,29.846H663.316Zm8.582,28.846-8.582-25.69L664.7,78.308Z" transform="translate(-627.809 -48.295)" fill="#d8e1a9"/><path d="M.5,28.871h-1V0h1Z" transform="translate(45.478 2.745)" fill="#d8e1a9"/><path d="M715.942,326.05v3.793H712.15v3.552h3.792v3.793h3.552v-3.793h3.792v-3.552h-3.792V326.05Z" transform="translate(-673.324 -308.312)" fill="#d8e1a9"/><path d="M520.685,353.255h-2.6v-1.435h-1.854l-1.745-30.49a1.838,1.838,0,0,0,1.836-1.775l15.509.416v-.963l-15.509.414a1.838,1.838,0,0,0-1.408-1.721.441.441,0,0,0,.087-.263v-.142a.444.444,0,0,0-.444-.444h-.143a.444.444,0,0,0-.444.444v.142a.441.441,0,0,0,.087.263,1.837,1.837,0,0,0-1.409,1.721L497.14,319v.963l15.509-.416a1.837,1.837,0,0,0,1.832,1.777l-1.745,30.493H510.72v1.435h-2.6v.937H502.8v2.059h23.212v-2.059h-5.323Z" transform="translate(-485.86 -316.89)" fill="#d8e1a9"/><path d="M316.949,724.479c0-.459-1.76-.872-4.549-1.151a8.853,8.853,0,0,1-1.254-2.647,6.5,6.5,0,0,1,.608-2.557l-.055-.26.321-.306-.369-.323-.177.5h-.186a7.256,7.256,0,0,0-1.32,1.928,2.635,2.635,0,0,0-4.323,1.565,2.219,2.219,0,0,1-.385-1.865c.654-1.534,1.264-3.734-.89-3.734s-3.277,2.094-2.153,4.207a3.327,3.327,0,0,1-.13,3.116l-.572.009V715H297.6l.006,5.149-.043.058a3.73,3.73,0,0,0-.088-1.472,3.612,3.612,0,0,0-.632.664,3.748,3.748,0,0,0-.112-1.273,3.716,3.716,0,0,0-.709.775,3.681,3.681,0,0,0-.032-1.758,3.751,3.751,0,0,0-.824.949c.021-.058.041-.117.06-.176a3.617,3.617,0,0,0,.021-1.943,3.62,3.62,0,0,0-1.12,1.588,5.129,5.129,0,0,0-.224,1.005,4.957,4.957,0,0,0-1.063-.429,3.621,3.621,0,0,0-1.943.048,3.731,3.731,0,0,0,.936.766,3.046,3.046,0,0,0-.373.093,3.729,3.729,0,0,0,.958.78,3.41,3.41,0,0,0-.623.131,3.717,3.717,0,0,0,.851.715c-.143.033-.227.062-.227.062a3.661,3.661,0,0,0,.746.647c-.142.033-.226.062-.226.062a3.667,3.667,0,0,0,.757.654c-.123.03-.2.055-.2.055a3.735,3.735,0,0,0,.946.773,3.075,3.075,0,0,0-.421.1,3.2,3.2,0,0,0,.347.345c-2.544.279-4.13.672-4.13,1.107,0,.846,5.979,1.531,13.357,1.531S316.949,725.325,316.949,724.479Zm-22.283-4.927a2.665,2.665,0,0,0-.258-.158,2.09,2.09,0,0,0,.43-.575A5.364,5.364,0,0,0,294.667,719.552Zm.7,1.531-.058-.031a.2.2,0,0,0,.05-.084c.033-.115-.049-.254-.218-.4a1.767,1.767,0,0,0,.342-.42A3.854,3.854,0,0,0,295.368,721.083Zm.768.861c-.059-.04-.124-.081-.194-.12a.208.208,0,0,0,.043-.077.273.273,0,0,0-.057-.227,1.623,1.623,0,0,0,.208-.243A2.277,2.277,0,0,0,296.136,721.944Zm.767.872a2.072,2.072,0,0,0-.428-.3.186.186,0,0,0,.031-.061.254.254,0,0,0-.039-.2,1.033,1.033,0,0,0,.445-.421,2.323,2.323,0,0,0-.009.982Zm.7.292-.53.032a.227.227,0,0,0-.014-.109l.019.008c.146.047.336-.092.53-.357V723c0,.038,0,.072-.006.107Zm12.817.055a2.68,2.68,0,0,0,.237-.419,5.2,5.2,0,0,0,.578.479C310.968,723.2,310.7,723.182,310.418,723.163Z" transform="translate(-290.24 -693.333)" fill="#d8e1a9"/><ellipse cx="13.354" cy="1.531" rx="13.354" ry="1.531" transform="translate(31.04 29.615)" fill="#d8e1a9"/><path d="M609.361,1097.754H607v-8.568h2.362v4.082a16.279,16.279,0,0,0,2.043-1.862,11.962,11.962,0,0,0,1.636-2.225h1.613a13.165,13.165,0,0,1-1.446,2.011,15.569,15.569,0,0,1-1.773,1.731l3.422,4.832H612.39l-2.577-3.641c-.076.052-.15.1-.223.149s-.15.095-.23.143Z" transform="translate(-589.731 -1047.113)" fill="#d8e1a9"/><path d="M762.189,1091.672a3.107,3.107,0,0,1-.14.976,2.268,2.268,0,0,1-.393.732,2.307,2.307,0,0,1-.6.518,3.344,3.344,0,0,1-.753.333,4.887,4.887,0,0,1-.863.179,7.971,7.971,0,0,1-.927.054,6.636,6.636,0,0,1-1.145-.092,4.383,4.383,0,0,1-.985-.292,4.445,4.445,0,0,1-.887-.515,6.374,6.374,0,0,1-.848-.768l1.219-1.233a2.814,2.814,0,0,0,.458.758,3.493,3.493,0,0,0,.64.6,3.162,3.162,0,0,0,.723.392,1.987,1.987,0,0,0,.709.143,4.564,4.564,0,0,0,.738-.054,2.046,2.046,0,0,0,.6-.187,1.041,1.041,0,0,0,.4-.348.952.952,0,0,0,.146-.545.785.785,0,0,0-.113-.429,1.086,1.086,0,0,0-.295-.306,1.893,1.893,0,0,0-.413-.218,4.392,4.392,0,0,0-.473-.152q-.241-.062-.473-.113t-.411-.1q-.35-.1-.732-.218t-.75-.264a5.266,5.266,0,0,1-.7-.342,2.584,2.584,0,0,1-.58-.458,2.084,2.084,0,0,1-.4-.613,2.022,2.022,0,0,1-.149-.8,3.155,3.155,0,0,1,.134-.961,2.275,2.275,0,0,1,.378-.729,2.306,2.306,0,0,1,.577-.521,3.189,3.189,0,0,1,.732-.339,4.684,4.684,0,0,1,.848-.184,7.347,7.347,0,0,1,.919-.055,5.334,5.334,0,0,1,1.17.119,4.37,4.37,0,0,1,.973.339,4.258,4.258,0,0,1,.818.527,5.965,5.965,0,0,1,.7.682l-1.214,1.231a2.8,2.8,0,0,0-.4-.773,3.085,3.085,0,0,0-.562-.592,2.552,2.552,0,0,0-.649-.381,1.776,1.776,0,0,0-.654-.134,4.7,4.7,0,0,0-.756.055,1.974,1.974,0,0,0-.591.184.971.971,0,0,0-.382.345.991.991,0,0,0-.137.539.868.868,0,0,0,.1.436.959.959,0,0,0,.273.3,1.561,1.561,0,0,0,.382.206,4.359,4.359,0,0,0,.443.14q.229.06.452.1t.408.1l.75.214q.393.114.774.265a5.806,5.806,0,0,1,.726.348,2.7,2.7,0,0,1,.607.467,2.127,2.127,0,0,1,.417.625A2.014,2.014,0,0,1,762.189,1091.672Z" transform="translate(-729.331 -1043.649)" fill="#d8e1a9"/><path d="M922.252,1097.858H919.89v-8.568h6.152v1.095h-3.79v2.648h2.928v1.09h-2.928Z" transform="translate(-885.562 -1047.217)" fill="#d8e1a9"/></g></svg>