<svg xmlns="http://www.w3.org/2000/svg" width="137.458" height="121.048" viewBox="0 0 137.458 121.048"><g transform="translate(0 0.04)"><path d="M66.6,49.462l22.776,68.174H43.826Zm21.388,67.174L66.6,52.618,45.214,116.636Z" transform="translate(-38.743 -42.071)" fill="#00540b"/><path d="M.5,68.72h-1V0h1Z" transform="translate(27.858 6.589)" fill="#00540b"/><path d="M686.092,49.462l22.775,68.174H663.316Zm21.386,67.174L686.092,52.618,664.7,116.636Z" transform="translate(-577.841 -44.451)" fill="#00540b"/><path d="M.5,68.72h-1V0h1Z" transform="translate(108.25 6.589)" fill="#00540b"/><path d="M721.177,326.05v9.028H712.15v8.455h9.027v9.028h8.456v-9.028h9.027v-8.455h-9.027V326.05Z" transform="translate(-619.734 -283.773)" fill="#00540b"/><path d="M553.183,403.5H547v-3.417h-4.412l-4.153-72.575a4.375,4.375,0,0,0,4.369-4.224l36.915.99v-2.293l-36.915.985a4.374,4.374,0,0,0-3.352-4.1,1.049,1.049,0,0,0,.208-.627v-.337a1.058,1.058,0,0,0-1.058-1.058h-.34a1.058,1.058,0,0,0-1.058,1.058v.337a1.049,1.049,0,0,0,.208.627,4.373,4.373,0,0,0-3.353,4.1l-36.916-.99v2.293l36.916-.99a4.372,4.372,0,0,0,4.362,4.229l-4.153,72.582h-4.8v3.417h-6.187v2.229H510.6v4.9h55.251v-4.9H553.183Z" transform="translate(-470.291 -316.89)" fill="#00540b"/><path d="M353.816,737.563c0-1.093-4.19-2.076-10.827-2.74-1.058-1.687-2.809-4.672-2.985-6.3-.26-2.336,1.448-6.086,1.448-6.086l-.13-.619.764-.728-.879-.77-.42,1.2h-.444a17.27,17.27,0,0,0-3.143,4.589,6.273,6.273,0,0,0-10.291,3.724c-.923-1.621-1.447-3.2-.916-4.438,1.557-3.651,3.008-8.888-2.118-8.888s-7.8,4.984-5.125,10.013c1.6,3.012.484,5.515-.31,7.418q-.685.008-1.361.021V715h-9.33l.014,12.257-.1.138a8.878,8.878,0,0,0-.21-3.5,8.6,8.6,0,0,0-1.5,1.579,8.922,8.922,0,0,0-.266-3.029A8.849,8.849,0,0,0,304,724.285a8.761,8.761,0,0,0-.077-4.184,8.928,8.928,0,0,0-1.962,2.259c.049-.138.1-.278.143-.419a8.61,8.61,0,0,0,.049-4.625,8.617,8.617,0,0,0-2.666,3.779,12.21,12.21,0,0,0-.532,2.393,11.793,11.793,0,0,0-2.529-1.02,8.618,8.618,0,0,0-4.624.114,8.879,8.879,0,0,0,2.227,1.823,7.253,7.253,0,0,0-.889.221,8.876,8.876,0,0,0,2.28,1.856,8.116,8.116,0,0,0-1.482.313,8.849,8.849,0,0,0,2.024,1.7c-.34.079-.54.146-.54.146a8.711,8.711,0,0,0,1.775,1.54c-.339.078-.537.147-.537.147a8.726,8.726,0,0,0,1.8,1.557c-.293.072-.465.13-.465.13a8.887,8.887,0,0,0,2.252,1.839,7.313,7.313,0,0,0-1,.241,7.617,7.617,0,0,0,.827.821c-6.056.664-9.83,1.6-9.83,2.636,0,2.013,14.232,3.644,31.794,3.644S353.816,739.576,353.816,737.563Zm-53.038-11.729a6.349,6.349,0,0,0-.615-.375,4.973,4.973,0,0,0,1.023-1.368A12.771,12.771,0,0,0,300.777,725.834Zm1.669,3.645-.138-.073a.477.477,0,0,0,.119-.2c.078-.274-.117-.6-.519-.945a4.207,4.207,0,0,0,.814-1A9.173,9.173,0,0,0,302.446,729.48Zm1.827,2.049c-.14-.1-.295-.192-.462-.287a.5.5,0,0,0,.1-.183.649.649,0,0,0-.136-.54,3.86,3.86,0,0,0,.5-.579A5.42,5.42,0,0,0,304.273,731.529Zm1.826,2.076a4.932,4.932,0,0,0-1.02-.716.443.443,0,0,0,.073-.144.6.6,0,0,0-.092-.468,2.458,2.458,0,0,0,1.06-1,5.531,5.531,0,0,0-.021,2.337Zm1.662.7-1.261.077a.542.542,0,0,0-.032-.26.352.352,0,0,0,.045.018c.346.113.8-.219,1.263-.849v.764c-.007.089-.012.172-.014.254Zm30.508.13a6.378,6.378,0,0,0,.563-1,12.4,12.4,0,0,0,1.376,1.141C339.579,734.523,338.931,734.476,338.269,734.43Z" transform="translate(-290.24 -663.372)" fill="#00540b"/><ellipse cx="31.787" cy="3.644" rx="31.787" ry="3.644" transform="translate(73.883 70.546)" fill="#00540b"/><path d="M612.62,1109.589H607v-20.395h5.623v9.716a38.739,38.739,0,0,0,4.863-4.433,28.472,28.472,0,0,0,3.893-5.3h3.839a31.337,31.337,0,0,1-3.442,4.787,37.051,37.051,0,0,1-4.221,4.121l8.144,11.5h-5.868l-6.133-8.667c-.18.123-.357.24-.531.354s-.357.226-.546.34Z" transform="translate(-565.894 -988.995)" fill="#00540b"/><path d="M772.595,1100.169a7.4,7.4,0,0,1-.332,2.323,5.4,5.4,0,0,1-.934,1.741,5.493,5.493,0,0,1-1.428,1.233,7.954,7.954,0,0,1-1.792.793,11.632,11.632,0,0,1-2.054.426,19.035,19.035,0,0,1-2.206.13,15.822,15.822,0,0,1-2.725-.219,10.432,10.432,0,0,1-2.344-.694,10.579,10.579,0,0,1-2.112-1.225,15.176,15.176,0,0,1-2.018-1.827l2.9-2.934a6.7,6.7,0,0,0,1.09,1.8,8.31,8.31,0,0,0,1.522,1.428,7.526,7.526,0,0,0,1.721.934,4.73,4.73,0,0,0,1.687.34,10.869,10.869,0,0,0,1.756-.13,4.872,4.872,0,0,0,1.427-.446,2.479,2.479,0,0,0,.955-.829,2.266,2.266,0,0,0,.348-1.3,1.869,1.869,0,0,0-.269-1.02,2.589,2.589,0,0,0-.7-.729,4.517,4.517,0,0,0-.984-.519,10.5,10.5,0,0,0-1.126-.362q-.573-.148-1.126-.269t-.977-.248q-.834-.242-1.741-.519t-1.785-.629a12.556,12.556,0,0,1-1.665-.815,6.153,6.153,0,0,1-1.381-1.09,4.962,4.962,0,0,1-.949-1.459,4.811,4.811,0,0,1-.354-1.905,7.515,7.515,0,0,1,.319-2.288,5.42,5.42,0,0,1,.9-1.735,5.493,5.493,0,0,1,1.373-1.239,7.587,7.587,0,0,1,1.743-.807,11.165,11.165,0,0,1,2.018-.439,17.482,17.482,0,0,1,2.188-.13,12.685,12.685,0,0,1,2.784.283,10.405,10.405,0,0,1,2.315.807,10.125,10.125,0,0,1,1.947,1.254,14.187,14.187,0,0,1,1.664,1.622l-2.889,2.931a6.658,6.658,0,0,0-.942-1.841,7.353,7.353,0,0,0-1.338-1.41,6.077,6.077,0,0,0-1.544-.908,4.222,4.222,0,0,0-1.557-.319,11.162,11.162,0,0,0-1.8.13,4.691,4.691,0,0,0-1.408.438,2.311,2.311,0,0,0-.909.821,2.359,2.359,0,0,0-.326,1.282,2.067,2.067,0,0,0,.24,1.038,2.282,2.282,0,0,0,.649.721,3.716,3.716,0,0,0,.908.489,10.353,10.353,0,0,0,1.055.332q.545.143,1.076.248t.971.234l1.784.51q.934.271,1.842.631a13.831,13.831,0,0,1,1.727.829,6.418,6.418,0,0,1,1.446,1.111,5.064,5.064,0,0,1,.992,1.488A4.794,4.794,0,0,1,772.595,1100.169Z" transform="translate(-694.383 -985.806)" fill="#00540b"/><path d="M925.513,1109.685H919.89V1089.29h14.645v2.606h-9.022v6.3h6.969v2.6h-6.969Z" transform="translate(-838.18 -989.09)" fill="#00540b"/></g></svg>