<svg id="Layer_1" data-name="Layer 1" xmlns="http://www.w3.org/2000/svg" viewBox="0 0 1059.24 932.72"><defs><style>.cls-1{fill:none;stroke:#f6cd00;stroke-miterlimit:10;stroke-width:8px;}.cls-2{fill:#f6cd00;}</style></defs><polygon class="cls-1" points="214.67 51.04 44.52 560.37 384.83 560.37 214.67 51.04"/><line class="cls-1" x1="214.67" y1="51.04" x2="214.67" y2="580.59"/><polygon class="cls-1" points="834.17 51.04 664.01 560.37 1004.32 560.37 834.17 51.04"/><line class="cls-1" x1="834.17" y1="51.04" x2="834.17" y2="580.59"/><polygon class="cls-2" points="781.71 326.05 781.71 395.62 712.15 395.62 712.15 460.77 781.71 460.77 781.71 530.34 846.87 530.34 846.87 460.77 916.43 460.77 916.43 395.62 846.87 395.62 846.87 326.05 781.71 326.05"/><path class="cls-2" d="M929,984.59H881.33V958.26h-34L815.33,399A33.71,33.71,0,0,0,849,366.45l284.46,7.63V356.41L849,364a33.71,33.71,0,0,0-25.83-31.57,8.09,8.09,0,0,0,1.6-4.83V325a8.15,8.15,0,0,0-8.15-8.15H814a8.15,8.15,0,0,0-8.15,8.15v2.6a8.09,8.09,0,0,0,1.6,4.83A33.7,33.7,0,0,0,781.61,364l-284.47-7.63v17.67l284.47-7.63A33.69,33.69,0,0,0,815.22,399l-32,559.31h-37v26.33H698.54v17.18H600.88v37.77h425.76v-37.77H929Z" transform="translate(-290.24 -316.89)"/><path class="cls-2" d="M780.15,888.87c0-8.42-32.29-16-83.43-21.11-8.15-13-21.65-36-23-48.55-2-18,11.16-46.9,11.16-46.9l-1-4.77,5.89-5.61L683,756l-3.24,9.26h-3.42s-15.84,16-24.22,35.36a48.34,48.34,0,0,0-79.3,28.7c-7.11-12.49-11.15-24.65-7.06-34.2,12-28.13,23.18-68.49-16.32-68.49s-60.1,38.41-39.49,77.16c12.34,23.21,3.73,42.5-2.39,57.16q-5.28.06-10.49.16V715h-71.9l.11,94.45-.78,1.06a68.42,68.42,0,0,0-1.62-27,66.27,66.27,0,0,0-11.59,12.17,68.74,68.74,0,0,0-2.05-23.34,68.17,68.17,0,0,0-13,14.21c4.14-16.66-.59-32.24-.59-32.24a68.81,68.81,0,0,0-15.12,17.41c.38-1.06.75-2.14,1.1-3.23,5.78-17.89.38-35.64.38-35.64s-14.76,11.24-20.54,29.12a94.07,94.07,0,0,0-4.1,18.44,91,91,0,0,0-19.49-7.86c-18.07-5.14-35.63.88-35.63.88a68.43,68.43,0,0,0,17.16,14.05,55.87,55.87,0,0,0-6.85,1.7,68.39,68.39,0,0,0,17.57,14.3,62.6,62.6,0,0,0-11.42,2.41A68.13,68.13,0,0,0,334.31,819c-2.62.61-4.16,1.13-4.16,1.13A67.17,67.17,0,0,0,343.83,832c-2.61.6-4.14,1.13-4.14,1.13a67.28,67.28,0,0,0,13.88,12c-2.26.55-3.58,1-3.58,1a68.53,68.53,0,0,0,17.35,14.17,56.42,56.42,0,0,0-7.72,1.86,58.78,58.78,0,0,0,6.37,6.33c-46.67,5.12-75.75,12.32-75.75,20.31,0,15.51,109.67,28.08,245,28.08S780.15,904.38,780.15,888.87ZM371.44,798.49a49,49,0,0,0-4.74-2.89c2.54-2.14,5.27-5.81,7.88-10.54A98.43,98.43,0,0,0,371.44,798.49Zm12.86,28.09-1.06-.56a3.67,3.67,0,0,0,.92-1.54c.6-2.11-.9-4.65-4-7.28a32.42,32.42,0,0,0,6.27-7.7A70.69,70.69,0,0,0,384.3,826.58Zm14.08,15.79c-1.08-.74-2.27-1.48-3.56-2.21a3.81,3.81,0,0,0,.79-1.41,5,5,0,0,0-1.05-4.16,29.81,29.81,0,0,0,3.82-4.46A41.73,41.73,0,0,0,398.38,842.37Zm14.07,16a38.06,38.06,0,0,0-7.86-5.52,3.42,3.42,0,0,0,.56-1.11,4.66,4.66,0,0,0-.71-3.61c2.46-.78,5.32-3.54,8.17-7.73C411.29,848,411.23,854.45,412.45,858.41Zm12.81,5.36-9.72.59a4.17,4.17,0,0,0-.25-2,2.55,2.55,0,0,0,.35.14c2.67.87,6.17-1.69,9.73-6.54v5.89C425.32,862.5,425.28,863.14,425.26,863.77Zm235.09,1a49.18,49.18,0,0,0,4.34-7.69,95.57,95.57,0,0,0,10.6,8.79C670.44,865.44,665.45,865.08,660.35,864.73Z" transform="translate(-290.24 -316.89)"/><ellipse class="cls-2" cx="814.29" cy="571.97" rx="244.95" ry="28.08"/><path class="cls-2" d="M650.31,1246.45H607V1089.29h43.33v74.87A298.67,298.67,0,0,0,687.8,1130a219.43,219.43,0,0,0,30-40.82h29.58a241.41,241.41,0,0,1-26.52,36.89,285.45,285.45,0,0,1-32.53,31.76l62.76,88.62H705.87l-47.26-66.79c-1.39.95-2.75,1.85-4.09,2.73s-2.75,1.74-4.21,2.62Z" transform="translate(-290.24 -316.89)"/><path class="cls-2" d="M892.93,1198.43a57,57,0,0,1-2.56,17.9,41.59,41.59,0,0,1-7.2,13.42,42.33,42.33,0,0,1-11,9.5,61.51,61.51,0,0,1-13.81,6.11,89.81,89.81,0,0,1-15.83,3.28,146.08,146.08,0,0,1-17,1,121.78,121.78,0,0,1-21-1.69,80.3,80.3,0,0,1-18.06-5.35,81.65,81.65,0,0,1-16.27-9.44,116.65,116.65,0,0,1-15.55-14.08L777,1196.47a51.6,51.6,0,0,0,8.4,13.91,64,64,0,0,0,11.73,11,58,58,0,0,0,13.26,7.2,36.47,36.47,0,0,0,13,2.62,83.91,83.91,0,0,0,13.53-1,37.42,37.42,0,0,0,11-3.44,19.09,19.09,0,0,0,7.36-6.39,17.45,17.45,0,0,0,2.68-10,14.39,14.39,0,0,0-2.07-7.86,19.92,19.92,0,0,0-5.41-5.62,34.59,34.59,0,0,0-7.58-4,79.73,79.73,0,0,0-8.68-2.79q-4.42-1.14-8.68-2.07t-7.53-1.91q-6.43-1.86-13.42-4t-13.75-4.85a96.6,96.6,0,0,1-12.83-6.28,47.43,47.43,0,0,1-10.64-8.4,38.18,38.18,0,0,1-7.31-11.24,37.07,37.07,0,0,1-2.73-14.68,57.9,57.9,0,0,1,2.46-17.63,41.75,41.75,0,0,1,6.93-13.37,42.26,42.26,0,0,1,10.58-9.55,58.51,58.51,0,0,1,13.43-6.22,86.12,86.12,0,0,1,15.55-3.38,135.09,135.09,0,0,1,16.86-1,97.8,97.8,0,0,1,21.45,2.18,80.24,80.24,0,0,1,17.84,6.22,77.94,77.94,0,0,1,15,9.66,109.42,109.42,0,0,1,12.82,12.5l-22.26,22.59a51.39,51.39,0,0,0-7.26-14.19,56.57,56.57,0,0,0-10.31-10.86,46.75,46.75,0,0,0-11.9-7,32.59,32.59,0,0,0-12-2.46,86.23,86.23,0,0,0-13.87,1,36.26,36.26,0,0,0-10.85,3.38,17.83,17.83,0,0,0-7,6.33,18.15,18.15,0,0,0-2.51,9.88,15.92,15.92,0,0,0,1.85,8,17.59,17.59,0,0,0,5,5.56,28.68,28.68,0,0,0,7,3.77,80.22,80.22,0,0,0,8.13,2.56q4.2,1.1,8.29,1.91t7.48,1.8l13.75,3.93q7.2,2.09,14.19,4.86a106.68,106.68,0,0,1,13.31,6.39,49.45,49.45,0,0,1,11.14,8.56,39,39,0,0,1,7.64,11.46A36.94,36.94,0,0,1,892.93,1198.43Z" transform="translate(-290.24 -316.89)"/><path class="cls-2" d="M963.22,1246.45H919.89V1089.29h112.85v20.08H963.22v48.57h53.7v20h-53.7Z" transform="translate(-290.24 -316.89)"/></svg>