<svg xmlns="http://www.w3.org/2000/svg" width="35.922" height="28.373" viewBox="0 0 35.922 28.373">
  <g id="Groupe_12" data-name="Groupe 12" transform="translate(0)">
    <path id="Soustraction_2" data-name="Soustraction 2" d="M13,26A13,13,0,1,1,26,13,13.015,13.015,0,0,1,13,26ZM13,2.737A10.263,10.263,0,1,0,23.263,13,10.274,10.274,0,0,0,13,2.737ZM13,21.9A8.9,8.9,0,1,1,21.9,13,8.905,8.905,0,0,1,13,21.9Z" transform="translate(5.105 1)" fill="#fff"/>
    <path id="Tracé_3" data-name="Tracé 3" d="M371.571,92v9.935l1.97,1.082-.3,16.735h2.49l-.855-16.735,1.858-1.082V92h-.818l-.186,5.9h-.557l-.3-5.9h-.855l-.223,5.9h-.78l-.632-5.9Z" transform="translate(-371.571 -92)" fill="#fff"/>
    <path id="Tracé_4" data-name="Tracé 4" d="M371.678,92.073c-.1-.193.768,28.372.768,28.372h2.177l-.737-12.263,1.536-.5S376.671,95.271,371.678,92.073Z" transform="translate(-339.639 -92.072)" fill="#fff"/>
  </g>
</svg>
