<svg id="Groupe_65" data-name="Groupe 65" xmlns="http://www.w3.org/2000/svg" width="96" height="136" viewBox="0 0 96 136">
  <rect id="Rectangle_21" data-name="Rectangle 21" width="96" height="91" fill="#f6cd00"/>
  <rect id="Rectangle_23" data-name="Rectangle 23" width="96" height="45" transform="translate(0 91)" opacity="0.38"/>
  <g id="Groupe_64" data-name="Groupe 64" transform="translate(17.75 13.671)">
    <g id="Groupe_62" data-name="Groupe 62" transform="translate(11.75 0)">
      <circle id="Ellipse_11" data-name="Ellipse 11" cx="10" cy="10" r="10" transform="translate(8.5 19.329)" fill="#00540b"/>
      <path id="Soustraction_3" data-name="Soustraction 3" d="M37,22H0c0-.1,0-.2,0-.3a24.829,24.829,0,0,1,1.454-8.448,22.162,22.162,0,0,1,3.965-6.9A18.581,18.581,0,0,1,11.3,1.705a16.055,16.055,0,0,1,14.4,0,18.583,18.583,0,0,1,5.881,4.651,22.165,22.165,0,0,1,3.965,6.9A24.829,24.829,0,0,1,37,21.7c0,.1,0,.2,0,.3Z" transform="translate(0.5 41.329)" fill="#00540b"/>
      <path id="Union_3" data-name="Union 3" d="M6.1,23V15.6a5.212,5.212,0,0,1-.653.041A5.6,5.6,0,0,1,0,9.89,5.6,5.6,0,0,1,5.444,4.14a5.179,5.179,0,0,1,2.211.494,6.282,6.282,0,0,1,12.077-.163,5.175,5.175,0,0,1,1.825-.331A5.6,5.6,0,0,1,27,9.89a5.6,5.6,0,0,1-5.444,5.75A5.209,5.209,0,0,1,20.9,15.6V23Z" transform="translate(5.5 0.329)" fill="#00540b"/>
    </g>
    <g id="Groupe_63" data-name="Groupe 63" transform="translate(0 12.067)">
      <path id="Tracé_3" data-name="Tracé 3" d="M371.571,92v13.745l1.874,1.5-.283,23.152h2.369l-.813-23.152,1.768-1.5V92h-.778l-.177,8.157H375L374.718,92H373.9l-.212,8.157h-.743l-.6-8.157Z" transform="translate(-371.571 -92)" fill="#00540b"/>
      <path id="Tracé_4" data-name="Tracé 4" d="M371.677,92.074c-.091-.265.731,38.984.731,38.984h2.072l-.7-16.849,1.462-.694S376.429,96.467,371.677,92.074Z" transform="translate(-314.703 -92.072)" fill="#00540b"/>
    </g>
  </g>
  <text id="Restaurant_Cuisinier_etc." data-name="Restaurant
Cuisinier etc." transform="translate(48 112)" fill="#f6cd00" font-size="11" font-family="CenturyGothic, Century Gothic"><tspan x="-28.641" y="0">Restaurant</tspan><tspan x="-33.878" y="13">Cuisinier etc.</tspan></text>
</svg>
