<svg xmlns="http://www.w3.org/2000/svg" width="134" height="189" viewBox="0 0 134 189"><path d="M21,0h92a21,21,0,0,1,21,21V126a0,0,0,0,1,0,0H0a0,0,0,0,1,0,0V21A21,21,0,0,1,21,0Z" fill="#63980e"/><path d="M0,0H134a0,0,0,0,1,0,0V42a21,21,0,0,1-21,21H21A21,21,0,0,1,0,42V0A0,0,0,0,1,0,0Z" transform="translate(0 126)" fill="#00540b"/><g transform="translate(24.669 18.502)"><g transform="translate(16.035)"><circle cx="14" cy="14" r="14" transform="translate(12.296 27.498)" fill="#fff"/><path d="M52,31H0c0-.14,0-.278,0-.419a35.069,35.069,0,0,1,2.043-11.9A31.248,31.248,0,0,1,7.615,8.957,26.125,26.125,0,0,1,15.879,2.4a22.511,22.511,0,0,1,20.241,0,26.128,26.128,0,0,1,8.264,6.554,31.253,31.253,0,0,1,5.572,9.721A35.069,35.069,0,0,1,52,30.581c0,.14,0,.278,0,.418Z" transform="translate(0.296 57.498)" fill="#fff"/><path d="M8.58,32V21.7a7.418,7.418,0,0,1-.919.057A7.836,7.836,0,0,1,0,13.76a7.836,7.836,0,0,1,7.661-8,7.359,7.359,0,0,1,3.112.688,8.869,8.869,0,0,1,17-.227,7.359,7.359,0,0,1,2.568-.461,7.836,7.836,0,0,1,7.661,8,7.836,7.836,0,0,1-7.661,8,7.414,7.414,0,0,1-.92-.057V32Z" transform="translate(7.296 0.498)" fill="#fff"/></g><g transform="translate(0 17.268)"><path d="M371.571,92v19.1l2.6,2.08-.393,32.178h3.293l-1.13-32.178,2.457-2.08V92h-1.081l-.246,11.336h-.737L375.945,92h-1.13l-.295,11.336h-1.032L372.652,92Z" transform="translate(-371.571 -92)" fill="#fff"/><path d="M371.68,92.074c-.127-.368,1.016,54.181,1.016,54.181h2.88l-.975-23.417,2.032-.964S378.283,98.18,371.68,92.074Z" transform="translate(-292.496 -92.072)" fill="#fff"/></g></g><text transform="translate(63 153)" fill="#fff" font-size="16" font-family="CenturyGothic, Century Gothic"><tspan x="-41.66" y="0">Restaurant</tspan><tspan x="-49.277" y="21">Cuisinier etc.</tspan></text></svg>