<svg xmlns="http://www.w3.org/2000/svg" width="97" height="136" viewBox="0 0 97 136">
  <g id="Groupe_66" data-name="Groupe 66" transform="translate(0.319)">
    <rect id="Rectangle_21" data-name="Rectangle 21" width="97" height="91" transform="translate(-0.319)" fill="#f6cd00"/>
    <rect id="Rectangle_23" data-name="Rectangle 23" width="97" height="45" transform="translate(-0.319 91)" opacity="0.38"/>
    <g id="Groupe_64" data-name="Groupe 64" transform="translate(29.184 33.101)">
      <g id="Groupe_62" data-name="Groupe 62" transform="translate(0 0)">
        <ellipse id="Ellipse_11" data-name="Ellipse 11" cx="10.5" cy="10" rx="10.5" ry="10" transform="translate(8.497 -0.101)" fill="#00540b"/>
        <path id="Soustraction_3" data-name="Soustraction 3" d="M37,22H0c0-.1,0-.2,0-.3a24.829,24.829,0,0,1,1.454-8.448,22.162,22.162,0,0,1,3.965-6.9A18.581,18.581,0,0,1,11.3,1.705a16.055,16.055,0,0,1,14.4,0,18.583,18.583,0,0,1,5.881,4.651,22.165,22.165,0,0,1,3.965,6.9A24.829,24.829,0,0,1,37,21.7c0,.1,0,.2,0,.3Z" transform="translate(0.497 21.899)" fill="#00540b"/>
      </g>
    </g>
    <text id="Consommateur" transform="translate(48.681 114)" fill="#f6cd00" font-size="11" font-family="CenturyGothic, Century Gothic"><tspan x="-41.674" y="0">Consommateur</tspan></text>
    <path id="Tracé_7" data-name="Tracé 7" d="M109.791,370.044a8.124,8.124,0,0,0,4.345,1.7,9.314,9.314,0,0,0,4.57-1.7s-2.341,2.628-4.57,2.628S109.791,370.044,109.791,370.044Z" transform="translate(-65.687 -322.964)" fill="#fff"/>
    <path id="Tracé_8" data-name="Tracé 8" d="M108.772,370.044s3.021,1.7,5.25,1.7a14.7,14.7,0,0,0,5.139-1.413s-3.564,11.079-5.792,11.079S108.772,370.044,108.772,370.044Z" transform="translate(-65.573 -314.088)" fill="#fff"/>
  </g>
</svg>
