<svg xmlns="http://www.w3.org/2000/svg" width="135" height="189" viewBox="0 0 135 189"><g transform="translate(0.319)"><path d="M21,0h93a21,21,0,0,1,21,21V126a0,0,0,0,1,0,0H0a0,0,0,0,1,0,0V21A21,21,0,0,1,21,0Z" transform="translate(-0.319)" fill="#63980e"/><path d="M0,0H135a0,0,0,0,1,0,0V42a21,21,0,0,1-21,21H21A21,21,0,0,1,0,42V0A0,0,0,0,1,0,0Z" transform="translate(-0.319 126)" fill="#00540b"/><g transform="translate(40.704 45.638)"><ellipse cx="14.5" cy="14" rx="14.5" ry="14" transform="translate(11.977 0.362)" fill="#fff"/><path d="M52,31H0c0-.14,0-.278,0-.419a35.069,35.069,0,0,1,2.043-11.9A31.248,31.248,0,0,1,7.615,8.957,26.125,26.125,0,0,1,15.879,2.4a22.511,22.511,0,0,1,20.241,0,26.128,26.128,0,0,1,8.264,6.554,31.253,31.253,0,0,1,5.572,9.721A35.069,35.069,0,0,1,52,30.581c0,.14,0,.278,0,.418Z" transform="translate(-0.023 30.362)" fill="#fff"/></g><text transform="translate(62.681 159)" fill="#fff" font-size="15" font-family="CenturyGothic, Century Gothic"><tspan x="-56.829" y="0">Consommateur</tspan></text><path d="M109.791,370.044s2.941,2.367,6.039,2.367,6.351-2.367,6.351-2.367-3.253,3.652-6.351,3.652S109.791,370.044,109.791,370.044Z" transform="translate(-48.376 -304.616)" fill="#fff"/><path d="M108.772,370.044s4.2,2.367,7.3,2.367,7.142-1.963,7.142-1.963-4.952,15.4-8.05,15.4S108.772,370.044,108.772,370.044Z" transform="translate(-48.614 -292.282)" fill="#fff"/></g></svg>